<svg width="118" height="40" viewBox="0 0 118 40" fill="none" xmlns="http://www.w3.org/2000/svg">
<path d="M107.976 0.554692H9.70082C9.34259 0.554692 8.98867 0.554692 8.63139 0.556646C8.33231 0.5586 8.03562 0.564276 7.73367 0.569053C7.0777 0.576772 6.42328 0.634481 5.77608 0.741679C5.12979 0.851211 4.50375 1.05771 3.91913 1.35419C3.33522 1.65318 2.80169 2.04168 2.33788 2.50561C1.87164 2.96824 1.483 3.50297 1.18689 4.08924C0.889965 4.67435 0.684075 5.30135 0.576333 5.94858C0.467567 6.59499 0.409039 7.24886 0.401275 7.90431C0.392209 8.20383 0.391252 8.50434 0.386475 8.80389V31.384C0.391252 31.6873 0.392209 31.9812 0.401275 32.2846C0.409042 32.94 0.46757 33.5939 0.576333 34.2402C0.683778 34.8879 0.889679 35.5152 1.18689 36.1005C1.48286 36.6849 1.87157 37.2175 2.33788 37.6775C2.79993 38.1435 3.33381 38.5323 3.91913 38.829C4.50375 39.1263 5.12972 39.334 5.77608 39.4452C6.42339 39.5516 7.07775 39.6093 7.73367 39.6179C8.03562 39.6246 8.33231 39.6284 8.63139 39.6284C8.98866 39.6303 9.34261 39.6303 9.70082 39.6303H107.976C108.327 39.6303 108.684 39.6303 109.035 39.6284C109.333 39.6284 109.638 39.6246 109.936 39.6179C110.59 39.6097 111.244 39.552 111.889 39.4452C112.538 39.3332 113.166 39.1255 113.754 38.829C114.338 38.5321 114.872 38.1434 115.333 37.6775C115.799 37.2157 116.188 36.6835 116.488 36.1005C116.783 35.5148 116.987 34.8875 117.093 34.2402C117.201 33.5938 117.262 32.9401 117.274 32.2846C117.278 31.9812 117.278 31.6873 117.278 31.384C117.285 31.0291 117.285 30.6762 117.285 30.3155V9.87045C117.285 9.51271 117.285 9.15782 117.278 8.80389C117.278 8.50434 117.278 8.20383 117.274 7.90427C117.262 7.24876 117.201 6.59504 117.093 5.94854C116.986 5.30168 116.782 4.67473 116.488 4.0892C115.885 2.91408 114.929 1.95753 113.754 1.3541C113.166 1.05835 112.538 0.851902 111.889 0.741591C111.244 0.633921 110.59 0.576192 109.936 0.568916C109.638 0.564149 109.333 0.558424 109.035 0.556519C108.684 0.554565 108.327 0.554565 107.976 0.554565V0.554692Z" fill="#A6A6A6"/>
<path d="M8.63622 38.7755C8.33858 38.7755 8.04814 38.7717 7.75283 38.7651C7.14108 38.7571 6.53077 38.7038 5.92688 38.6057C5.3638 38.5088 4.81831 38.3284 4.30843 38.0705C3.80322 37.8148 3.34243 37.4794 2.94371 37.0774C2.53922 36.6801 2.20246 36.2192 1.94679 35.7132C1.68829 35.2038 1.5094 34.6578 1.41633 34.0943C1.31584 33.4887 1.26146 32.8764 1.25368 32.2626C1.24749 32.0566 1.23938 31.3706 1.23938 31.3706V8.80385C1.23938 8.80385 1.24802 8.12841 1.25373 7.92998C1.26118 7.31716 1.31524 6.70579 1.41544 6.10117C1.50867 5.53606 1.6877 4.98851 1.94634 4.47748C2.20108 3.97175 2.53596 3.51058 2.93802 3.11183C3.33962 2.7093 3.80188 2.37225 4.30795 2.11299C4.81666 1.85595 5.36111 1.67683 5.92307 1.58162C6.52893 1.48253 7.14137 1.42896 7.75523 1.42135L8.6367 1.40942H109.03L109.922 1.42183C110.531 1.42906 111.138 1.48215 111.738 1.58066C112.305 1.67707 112.856 1.85744 113.37 2.11585C114.384 2.63834 115.209 3.46496 115.729 4.47986C115.984 4.98736 116.16 5.53045 116.252 6.09068C116.354 6.70026 116.41 7.31643 116.422 7.93428C116.425 8.21093 116.425 8.5081 116.425 8.80385C116.433 9.17018 116.432 9.51886 116.432 9.87041V30.3154C116.432 30.6703 116.433 31.0167 116.425 31.3658C116.425 31.6835 116.425 31.9745 116.421 32.274C116.41 32.8808 116.354 33.486 116.254 34.0847C116.163 34.6523 115.985 35.2025 115.726 35.7161C115.469 36.2167 115.134 36.6735 114.734 37.0698C114.335 37.474 113.874 37.8113 113.367 38.0686C112.854 38.3285 112.305 38.5095 111.738 38.6057C111.134 38.7044 110.524 38.7576 109.912 38.7651C109.626 38.7717 109.326 38.7755 109.035 38.7755L107.976 38.7775L8.63622 38.7755Z" fill="black"/>
<path d="M24.5821 20.3862C24.5926 19.5708 24.8092 18.7713 25.2117 18.0621C25.6142 17.353 26.1895 16.7571 26.8842 16.33C26.4429 15.6998 25.8607 15.1811 25.1839 14.8152C24.5071 14.4493 23.7543 14.2463 22.9852 14.2222C21.3448 14.05 19.7545 15.2038 18.9185 15.2038C18.0664 15.2038 16.7794 14.2393 15.3934 14.2678C14.497 14.2968 13.6233 14.5575 12.8575 15.0245C12.0918 15.4915 11.46 16.1489 11.0239 16.9327C9.13457 20.2037 10.5438 25.011 12.3536 27.6551C13.2591 28.9498 14.3173 30.3961 15.702 30.3448C17.0571 30.2886 17.5631 29.4807 19.1987 29.4807C20.8192 29.4807 21.294 30.3448 22.7067 30.3122C24.1607 30.2886 25.0768 29.0117 25.9505 27.7047C26.6011 26.7822 27.1017 25.7626 27.4339 24.6837C26.5891 24.3264 25.8683 23.7284 25.3611 22.9641C24.854 22.1999 24.5831 21.3033 24.5821 20.3862V20.3862Z" fill="white"/>
<path d="M21.9129 12.4834C22.7056 11.5317 23.0962 10.3085 23.0016 9.07349C21.7904 9.2007 20.6717 9.77956 19.8682 10.6947C19.4753 11.1418 19.1744 11.662 18.9827 12.2254C18.791 12.7888 18.7122 13.3846 18.7509 13.9785C19.3567 13.9847 19.956 13.8534 20.5037 13.5944C21.0514 13.3355 21.5332 12.9556 21.9129 12.4834Z" fill="white"/>
<path d="M41.7097 27.0672H37.0857L35.9753 30.3461H34.0167L38.3965 18.2151H40.4314L44.8112 30.3461H42.8192L41.7097 27.0672ZM37.5646 25.5542H41.2299L39.4231 20.2328H39.3725L37.5646 25.5542Z" fill="white"/>
<path d="M54.2691 25.9242C54.2691 28.6727 52.7981 30.4385 50.5781 30.4385C50.0158 30.468 49.4565 30.3384 48.9644 30.0648C48.4722 29.7911 48.0671 29.3844 47.7953 28.8912H47.7533V33.2719H45.9379V21.5015H47.6952V22.9726H47.7285C48.0128 22.4817 48.4248 22.0771 48.9207 21.8018C49.4166 21.5264 49.9778 21.3907 50.5447 21.409C52.7894 21.409 54.2691 23.1834 54.2691 25.9242ZM52.4031 25.9242C52.4031 24.1336 51.4777 22.9564 50.0658 22.9564C48.6787 22.9564 47.7457 24.1584 47.7457 25.9242C47.7457 27.7063 48.6787 28.8998 50.0658 28.8998C51.4777 28.8998 52.4031 27.7311 52.4031 25.9242Z" fill="white"/>
<path d="M64.0036 25.9242C64.0036 28.6727 62.5326 30.4385 60.3126 30.4385C59.7503 30.468 59.191 30.3384 58.6989 30.0648C58.2067 29.7911 57.8016 29.3844 57.5298 28.8911H57.4878V33.2719H55.6724V21.5015H57.4296V22.9726H57.463C57.7472 22.4817 58.1592 22.0771 58.6551 21.8018C59.151 21.5264 59.7123 21.3907 60.2792 21.409C62.524 21.409 64.0036 23.1834 64.0036 25.9242ZM62.1376 25.9242C62.1376 24.1336 61.2122 22.9564 59.8003 22.9564C58.4132 22.9564 57.4802 24.1584 57.4802 25.9242C57.4802 27.7063 58.4132 28.8998 59.8003 28.8998C61.2122 28.8998 62.1376 27.7311 62.1376 25.9242H62.1376Z" fill="white"/>
<path d="M70.4385 26.9661C70.573 28.1691 71.7417 28.959 73.3386 28.959C74.8688 28.959 75.9698 28.1691 75.9698 27.0844C75.9698 26.1428 75.3058 25.579 73.7336 25.1926L72.1614 24.8139C69.9338 24.2758 68.8997 23.234 68.8997 21.5436C68.8997 19.4505 70.7237 18.0128 73.3138 18.0128C75.8772 18.0128 77.6345 19.4505 77.6936 21.5436H75.861C75.7513 20.3329 74.7505 19.6022 73.2881 19.6022C71.8256 19.6022 70.8248 20.3415 70.8248 21.4176C70.8248 22.2753 71.464 22.7799 73.0276 23.1663L74.3642 23.4944C76.8531 24.0831 77.8873 25.0829 77.8873 26.8573C77.8873 29.1268 76.0794 30.5483 73.2041 30.5483C70.5138 30.5483 68.6974 29.1602 68.5801 26.966L70.4385 26.9661Z" fill="white"/>
<path d="M81.8044 19.4084V21.5015H83.4862V22.9392H81.8044V27.8151C81.8044 28.5725 82.1411 28.9255 82.8805 28.9255C83.0801 28.922 83.2795 28.908 83.4777 28.8835V30.3126C83.1453 30.3747 82.8074 30.4028 82.4693 30.3965C80.6786 30.3965 79.9803 29.724 79.9803 28.0087V22.9392H78.6943V21.5015H79.9803V19.4084H81.8044Z" fill="white"/>
<path d="M84.4622 25.9243C84.4622 23.1415 86.1011 21.3928 88.6569 21.3928C91.2212 21.3928 92.8525 23.1415 92.8525 25.9243C92.8525 28.7147 91.2298 30.4558 88.6569 30.4558C86.0849 30.4558 84.4622 28.7147 84.4622 25.9243ZM91.0027 25.9243C91.0027 24.0154 90.1279 22.8887 88.6569 22.8887C87.1858 22.8887 86.3119 24.0239 86.3119 25.9243C86.3119 27.8409 87.1858 28.959 88.6569 28.959C90.1279 28.959 91.0027 27.8409 91.0027 25.9243H91.0027Z" fill="white"/>
<path d="M94.3474 21.5017H96.0789V23.0071H96.1209C96.2381 22.5369 96.5135 22.1214 96.9009 21.8304C97.2884 21.5394 97.7642 21.3906 98.2483 21.4091C98.4576 21.4084 98.6662 21.4311 98.8703 21.4769V23.175C98.6062 23.0943 98.3307 23.0572 98.0546 23.0653C97.7909 23.0546 97.528 23.1011 97.2839 23.2016C97.0398 23.3021 96.8204 23.4542 96.6407 23.6475C96.461 23.8409 96.3252 24.0708 96.2427 24.3215C96.1602 24.5723 96.133 24.8379 96.1629 25.1001V30.3462H94.3474L94.3474 21.5017Z" fill="white"/>
<path d="M107.241 27.7483C106.996 29.3539 105.433 30.4558 103.432 30.4558C100.859 30.4558 99.2625 28.7319 99.2625 25.9663C99.2625 23.1921 100.868 21.3928 103.356 21.3928C105.803 21.3928 107.342 23.0738 107.342 25.7554V26.3774H101.095V26.4872C101.066 26.8127 101.107 27.1406 101.215 27.4491C101.322 27.7576 101.494 28.0398 101.719 28.2767C101.944 28.5136 102.217 28.7 102.52 28.8234C102.822 28.9468 103.148 29.0044 103.474 28.9923C103.903 29.0325 104.334 28.9332 104.702 28.709C105.07 28.4849 105.356 28.148 105.517 27.7483L107.241 27.7483ZM101.104 25.1086H105.525C105.542 24.816 105.497 24.5231 105.395 24.2484C105.293 23.9737 105.135 23.723 104.931 23.5123C104.727 23.3015 104.482 23.1351 104.211 23.0235C103.94 22.9119 103.649 22.8576 103.356 22.8639C103.06 22.8621 102.767 22.9189 102.494 23.031C102.22 23.1431 101.972 23.3083 101.762 23.517C101.553 23.7257 101.387 23.9738 101.274 24.2469C101.161 24.5201 101.103 24.813 101.104 25.1086V25.1086Z" fill="white"/>
<path d="M35.234 14.9128V9.08398H37.577C38.6722 9.08398 39.3305 9.64112 39.3305 10.5379C39.3307 10.8325 39.2291 11.1181 39.0429 11.3463C38.8567 11.5746 38.5974 11.7315 38.3087 11.7905V11.8592C38.6668 11.8761 39.0043 12.0319 39.2494 12.2936C39.4944 12.5552 39.6279 12.9021 39.6214 13.2606C39.6214 14.2866 38.8745 14.9129 37.6295 14.9129L35.234 14.9128ZM36.1394 11.5519H37.2135C38.014 11.5519 38.4299 11.2571 38.4299 10.7038C38.4299 10.1663 38.0378 9.85143 37.3671 9.85143H36.1394V11.5519ZM37.4482 14.1454C38.2639 14.1454 38.696 13.8138 38.696 13.1961C38.696 12.5861 38.2477 12.2669 37.3958 12.2669H36.1394V14.1454H37.4482Z" fill="white"/>
<path d="M40.5516 13.669C40.5516 12.8771 41.1412 12.4207 42.1877 12.3558L43.3793 12.2871V11.9074C43.3793 11.4428 43.0721 11.1805 42.4787 11.1805C41.9941 11.1805 41.6583 11.3584 41.5619 11.6694H40.7214C40.8102 10.9138 41.5209 10.4292 42.5188 10.4292C43.6216 10.4292 44.2436 10.9782 44.2436 11.9074V14.913H43.4079V14.2948H43.3392C43.1998 14.5165 43.004 14.6973 42.7719 14.8186C42.5398 14.94 42.2796 14.9975 42.0179 14.9854C41.8333 15.0047 41.6466 14.985 41.47 14.9276C41.2935 14.8703 41.1308 14.7766 40.9927 14.6525C40.8545 14.5285 40.7439 14.3769 40.668 14.2075C40.592 14.0381 40.5524 13.8546 40.5516 13.669V13.669ZM43.3793 13.2931V12.9253L42.3051 12.994C41.6993 13.0345 41.4245 13.2406 41.4245 13.6284C41.4245 14.0243 41.768 14.2547 42.2402 14.2547C42.3786 14.2687 42.5184 14.2547 42.6512 14.2136C42.7841 14.1725 42.9073 14.1051 43.0136 14.0154C43.1199 13.9256 43.207 13.8155 43.2698 13.6914C43.3327 13.5673 43.3699 13.4318 43.3793 13.2931V13.2931Z" fill="white"/>
<path d="M45.4885 9.21328C45.4818 9.10084 45.5091 8.98898 45.5667 8.89219C45.6243 8.7954 45.7096 8.71813 45.8117 8.67041C45.9137 8.62268 46.0277 8.6067 46.1389 8.62451C46.2502 8.64233 46.3535 8.69314 46.4355 8.77035C46.5175 8.84755 46.5744 8.94761 46.5989 9.05756C46.6234 9.1675 46.6143 9.28227 46.5728 9.38699C46.5314 9.49171 46.4594 9.58156 46.3662 9.6449C46.2731 9.70825 46.1631 9.74217 46.0505 9.74226C45.9785 9.74594 45.9065 9.73501 45.8388 9.71015C45.7711 9.68528 45.7092 9.64699 45.6567 9.59758C45.6042 9.54817 45.5623 9.48865 45.5334 9.42261C45.5045 9.35657 45.4892 9.28536 45.4885 9.21328V9.21328ZM45.6173 10.514H46.4826V14.9129H45.6173L45.6173 10.514Z" fill="white"/>
<path d="M49.4638 13.3535L48.5022 14.9128H47.5491L49.0078 12.7234L47.5367 10.5139H48.5508L49.4962 12.0651H49.5649L50.5018 10.5139H51.4672L50.0171 12.6871L51.4835 14.9128H50.4865L49.5287 13.3535H49.4638Z" fill="white"/>
<path d="M52.2476 13.6688C52.2476 12.877 52.8371 12.4205 53.8837 12.3557L55.0752 12.287V11.9073C55.0752 11.4427 54.768 11.1803 54.1746 11.1803C53.69 11.1803 53.3542 11.3583 53.2578 11.6693H52.4174C52.5061 10.9137 53.2168 10.4291 54.2147 10.4291C55.3175 10.4291 55.9395 10.9781 55.9395 11.9073V14.9129H55.1038V14.2947H55.0351C54.8957 14.5164 54.6999 14.6972 54.4678 14.8185C54.2357 14.9399 53.9755 14.9974 53.7139 14.9853C53.5292 15.0045 53.3425 14.9848 53.166 14.9275C52.9894 14.8702 52.8268 14.7764 52.6886 14.6524C52.5505 14.5284 52.4398 14.3768 52.3639 14.2074C52.2879 14.0379 52.2483 13.8545 52.2476 13.6688V13.6688ZM55.0752 13.293V12.9252L54.001 12.9939C53.3952 13.0344 53.1205 13.2405 53.1205 13.6283C53.1205 14.0242 53.4639 14.2546 53.9362 14.2546C54.0745 14.2686 54.2143 14.2546 54.3472 14.2135C54.48 14.1724 54.6033 14.105 54.7095 14.0152C54.8158 13.9255 54.9029 13.8153 54.9658 13.6913C55.0286 13.5672 55.0658 13.4317 55.0752 13.293V13.293Z" fill="white"/>
<path d="M57.2999 10.514H58.1356V11.1885H58.2005C58.2941 10.9544 58.4594 10.7559 58.6728 10.6216C58.8862 10.4873 59.1367 10.4241 59.3882 10.4411C59.5183 10.4393 59.6481 10.4515 59.7756 10.4773V11.334C59.6162 11.3 59.4538 11.2824 59.2909 11.2816C59.1477 11.2687 59.0034 11.2859 58.8673 11.3322C58.7312 11.3784 58.6062 11.4526 58.5005 11.55C58.3947 11.6474 58.3105 11.7658 58.2533 11.8977C58.196 12.0296 58.167 12.1719 58.1681 12.3157V14.9129H57.2999L57.2999 10.514Z" fill="white"/>
<path d="M63.1211 10.514H63.9573V11.2128H64.0222C64.1322 10.9619 64.3179 10.7515 64.5532 10.611C64.7885 10.4705 65.0617 10.4069 65.3349 10.4291C65.5489 10.413 65.7638 10.4453 65.9637 10.5236C66.1636 10.6018 66.3433 10.724 66.4895 10.8811C66.6357 11.0383 66.7447 11.2263 66.8084 11.4313C66.8721 11.6362 66.8889 11.8529 66.8575 12.0652V14.9129H65.9893V12.2832C65.9893 11.5763 65.6821 11.2248 65.0401 11.2248C64.8948 11.218 64.7497 11.2427 64.6148 11.2973C64.48 11.3518 64.3585 11.4349 64.2587 11.5408C64.159 11.6466 64.0833 11.7728 64.0369 11.9107C63.9904 12.0486 63.9744 12.1949 63.9897 12.3395V14.9129H63.1211L63.1211 10.514Z" fill="white"/>
<path d="M67.9485 13.6688C67.9485 12.877 68.5381 12.4205 69.5846 12.3557L70.7761 12.287V11.9073C70.7761 11.4427 70.4689 11.1803 69.8756 11.1803C69.3909 11.1803 69.0551 11.3583 68.9588 11.6693H68.1183C68.207 10.9137 68.9177 10.4291 69.9156 10.4291C71.0184 10.4291 71.6404 10.9781 71.6404 11.9073V14.9129H70.8047V14.2947H70.7361C70.5966 14.5164 70.4009 14.6972 70.1687 14.8185C69.9366 14.9399 69.6764 14.9974 69.4148 14.9853C69.2301 15.0045 69.0435 14.9848 68.8669 14.9275C68.6903 14.8702 68.5277 14.7764 68.3895 14.6524C68.2514 14.5284 68.1408 14.3768 68.0648 14.2074C67.9888 14.0379 67.9492 13.8545 67.9485 13.6688V13.6688ZM70.7761 13.293V12.9252L69.7019 12.9939C69.0961 13.0344 68.8214 13.2405 68.8214 13.6283C68.8214 14.0242 69.1648 14.2546 69.6371 14.2546C69.7755 14.2686 69.9152 14.2546 70.0481 14.2135C70.181 14.1724 70.3042 14.105 70.4105 14.0152C70.5167 13.9255 70.6039 13.8153 70.6667 13.6913C70.7295 13.5672 70.7667 13.4317 70.7761 13.293H70.7761Z" fill="white"/>
</svg>
