<svg width="118" height="36" viewBox="0 0 118 36" fill="none" xmlns="http://www.w3.org/2000/svg">
<path d="M113.272 0.820801H4.72821C2.33034 0.820801 0.386475 2.76466 0.386475 5.16254V31.213C0.386475 33.6108 2.33034 35.5547 4.72821 35.5547H113.272C115.67 35.5547 117.613 33.6108 117.613 31.213V5.16254C117.613 2.76466 115.67 0.820801 113.272 0.820801Z" fill="black"/>
<path d="M113.272 1.51548C115.286 1.51548 116.919 3.14797 116.919 5.16254V31.213C116.919 33.2275 115.286 34.86 113.272 34.86H4.72821C2.71365 34.86 1.08115 33.2275 1.08115 31.213V5.16254C1.08115 3.14797 2.71365 1.51548 4.72821 1.51548H113.272ZM113.272 0.820801H4.72821C2.34026 0.820801 0.386475 2.77458 0.386475 5.16254V31.213C0.386475 33.6009 2.34026 35.5547 4.72821 35.5547H113.272C115.66 35.5547 117.613 33.6009 117.613 31.213V5.16254C117.613 2.77458 115.66 0.820801 113.272 0.820801Z" fill="#A6A6A6"/>
<path d="M59.5564 19.7073C57.5158 19.7073 55.8485 21.2617 55.8485 23.3978C55.8485 25.534 57.5158 27.0883 59.5564 27.0883C61.597 27.0883 63.2642 25.5253 63.2642 23.3978C63.2642 21.2704 61.597 19.7073 59.5564 19.7073ZM59.5564 25.6382C58.4362 25.6382 57.4723 24.7177 57.4723 23.3978C57.4723 22.0779 58.4362 21.1575 59.5564 21.1575C60.6765 21.1575 61.6404 22.0693 61.6404 23.3978C61.6404 24.7264 60.6765 25.6382 59.5564 25.6382ZM51.4721 19.7073C49.4314 19.7073 47.7642 21.2617 47.7642 23.3978C47.7642 25.534 49.4314 27.0883 51.4721 27.0883C53.5127 27.0883 55.1799 25.5253 55.1799 23.3978C55.1799 21.2704 53.5127 19.7073 51.4721 19.7073ZM51.4721 25.6382C50.3519 25.6382 49.388 24.7177 49.388 23.3978C49.388 22.0779 50.3519 21.1575 51.4721 21.1575C52.5922 21.1575 53.5561 22.0693 53.5561 23.3978C53.5561 24.7264 52.5922 25.6382 51.4721 25.6382ZM41.8508 20.8362V22.3992H45.602C45.4891 23.2849 45.1939 23.9275 44.751 24.3704C44.204 24.9174 43.353 25.5166 41.8594 25.5166C39.5496 25.5166 37.7435 23.6583 37.7435 21.3485C37.7435 19.0387 39.5496 17.1805 41.8594 17.1805C43.1012 17.1805 44.013 17.6667 44.6816 18.3006L45.7844 17.1978C44.8466 16.3034 43.6048 15.6174 41.8508 15.6174C38.69 15.6174 36.0328 18.1877 36.0328 21.3572C36.0328 24.5267 38.69 27.097 41.8508 27.097C43.5614 27.097 44.8466 26.5412 45.8539 25.4905C46.8872 24.4572 47.2085 22.9984 47.2085 21.8261C47.2085 21.4614 47.1824 21.1228 47.1216 20.8449H41.8508V20.8362ZM81.1956 22.0519C80.8917 21.227 79.9539 19.6987 78.0348 19.6987C76.1158 19.6987 74.5527 21.1922 74.5527 23.3891C74.5527 25.4558 76.1158 27.0796 78.2172 27.0796C79.9104 27.0796 80.8917 26.0463 81.2911 25.4471L80.032 24.6048C79.6152 25.2214 79.0421 25.6295 78.2172 25.6295C77.3922 25.6295 76.8018 25.2474 76.4284 24.5093L81.3693 22.4687L81.2043 22.0519H81.1956ZM76.1592 23.2849C76.1158 21.8609 77.262 21.1314 78.0869 21.1314C78.7295 21.1314 79.2766 21.4527 79.4589 21.913L76.1592 23.2849ZM72.1474 26.8625H73.7712V16.0082H72.1474V26.8625ZM69.4903 20.5236H69.4382C69.0735 20.0894 68.3788 19.6987 67.4931 19.6987C65.6435 19.6987 63.9502 21.3225 63.9502 23.4065C63.9502 25.4905 65.6435 27.0883 67.4931 27.0883C68.3788 27.0883 69.0735 26.6975 69.4382 26.246H69.4903V26.7757C69.4903 28.1911 68.7348 28.9466 67.5191 28.9466C66.5292 28.9466 65.9127 28.2345 65.6609 27.6354L64.2455 28.2258C64.6536 29.2071 65.7303 30.4054 67.5191 30.4054C69.4208 30.4054 71.0272 29.2852 71.0272 26.5586V19.9244H69.4903V20.5236V20.5236ZM67.632 25.6295C66.5118 25.6295 65.574 24.6917 65.574 23.4065C65.574 22.1214 66.5118 21.1575 67.632 21.1575C68.7522 21.1575 69.6032 22.1127 69.6032 23.4065C69.6032 24.7003 68.7348 25.6295 67.632 25.6295ZM88.8023 16.0082H84.9208V26.8625H86.5446V22.7466H88.811C90.6085 22.7466 92.3712 21.444 92.3712 19.3774C92.3712 17.3107 90.6085 16.0082 88.811 16.0082H88.8023ZM88.8457 21.2443H86.5446V17.5191H88.8457C90.0614 17.5191 90.7474 18.5264 90.7474 19.3774C90.7474 20.2284 90.0614 21.2356 88.8457 21.2356V21.2443ZM98.8578 19.6813C97.6855 19.6813 96.4698 20.2023 95.9662 21.3398L97.4077 21.939C97.7116 21.3398 98.2847 21.1401 98.8838 21.1401C99.7175 21.1401 100.577 21.6438 100.586 22.5382V22.651C100.291 22.4861 99.6654 22.2342 98.8925 22.2342C97.3382 22.2342 95.7665 23.0852 95.7665 24.6743C95.7665 26.1244 97.0343 27.0623 98.4584 27.0623C99.5438 27.0623 100.152 26.576 100.525 26.0029H100.577V26.8452H102.14V22.6858C102.14 20.758 100.699 19.6813 98.8404 19.6813H98.8578ZM98.6581 25.6295C98.1284 25.6295 97.3903 25.3603 97.3903 24.709C97.3903 23.8754 98.3107 23.5541 99.1096 23.5541C99.8217 23.5541 100.16 23.7104 100.586 23.9188C100.464 24.9261 99.5959 25.6382 98.6581 25.6382V25.6295ZM107.845 19.9158L105.987 24.6222H105.935L104.007 19.9158H102.262L105.153 26.4978L103.503 30.1536H105.197L109.651 19.9158H107.854H107.845ZM93.2483 26.8625H94.8721V16.0082H93.2483V26.8625Z" fill="white"/>
<path d="M9.45095 7.36816C9.19913 7.63735 9.05151 8.05415 9.05151 8.58384V27.7917C9.05151 28.3301 9.19913 28.7469 9.45095 29.0074L9.51174 29.0682L20.2706 18.3093V18.0575L9.51174 7.30737L9.45095 7.36816Z" fill="url(#paint0_linear_6_1189)"/>
<path d="M23.8565 21.9042L20.2703 18.318V18.0661L23.8565 14.4799L23.9347 14.5233L28.1809 16.9373C29.3966 17.6233 29.3966 18.7521 28.1809 19.4468L23.9347 21.8608L23.8565 21.9042V21.9042Z" fill="url(#paint1_linear_6_1189)"/>
<path d="M23.9339 21.8606L20.2694 18.1962L9.44983 29.0158C9.84927 29.4413 10.5092 29.4934 11.256 29.0679L23.9426 21.8606" fill="url(#paint2_linear_6_1189)"/>
<path d="M23.9358 14.5233L11.2493 7.31599C10.5025 6.8905 9.84256 6.9426 9.44312 7.36809L20.2627 18.1877L23.9272 14.5233H23.9358Z" fill="url(#paint3_linear_6_1189)"/>
<path opacity="0.2" d="M23.8577 21.7739L11.2493 28.9378C10.5459 29.3372 9.91201 29.3112 9.51257 28.9465L9.45178 29.0073L9.51257 29.068C9.92069 29.4328 10.5459 29.4588 11.2493 29.0594L23.9358 21.8521L23.8577 21.7739V21.7739Z" fill="black"/>
<path opacity="0.12" d="M9.45095 28.8856C9.19913 28.6164 9.05151 28.1996 9.05151 27.6699V27.8002C9.05151 28.3385 9.19913 28.7554 9.45095 29.0159L9.51174 28.9551L9.45095 28.8943V28.8856Z" fill="black"/>
<path opacity="0.12" d="M28.1819 19.3166L23.8489 21.774L23.927 21.8522L28.1732 19.4382C28.7811 19.0908 29.085 18.6393 29.085 18.1877C29.0329 18.5959 28.729 19.004 28.1732 19.3166H28.1819Z" fill="black"/>
<path opacity="0.25" d="M11.2484 7.43755L28.1812 17.0588C28.7283 17.3714 29.0409 17.7709 29.093 18.1877C29.093 17.7362 28.7891 17.2759 28.1812 16.9373L11.2484 7.31598C10.0328 6.62998 9.04285 7.20309 9.04285 8.59245V8.7227C9.04285 7.33335 10.0328 6.76024 11.2484 7.44623V7.43755Z" fill="white"/>
<path d="M36.2838 12.1093V6.89917H37.8729C38.6718 6.89917 39.3143 7.14231 39.7919 7.6199C40.2695 8.10617 40.5127 8.73138 40.5127 9.50421C40.5127 10.277 40.2695 10.9023 39.7919 11.3885C39.3143 11.8748 38.6718 12.1093 37.8729 12.1093H36.2838ZM36.9524 11.4667H37.8729C38.472 11.4667 38.9496 11.293 39.3057 10.9457C39.6617 10.5983 39.8354 10.1207 39.8354 9.49553C39.8354 8.87032 39.6617 8.40141 39.3057 8.05407C38.9496 7.70673 38.4807 7.53306 37.8729 7.53306H36.9524V11.4667V11.4667Z" fill="white" stroke="white" stroke-width="0.17367" stroke-miterlimit="10"/>
<path d="M41.46 12.1093V6.89917H42.1286V12.1093H41.46Z" fill="white" stroke="white" stroke-width="0.17367" stroke-miterlimit="10"/>
<path d="M44.7862 12.222C44.4041 12.222 44.0394 12.1004 43.6747 11.8486C43.31 11.5968 43.0755 11.2581 42.9626 10.8066L43.5705 10.5635C43.64 10.85 43.7876 11.0932 44.0133 11.2842C44.2391 11.4839 44.4909 11.5794 44.7775 11.5794C45.064 11.5794 45.3159 11.5013 45.5243 11.3537C45.7327 11.206 45.8369 10.9976 45.8369 10.7284C45.8369 10.4419 45.7327 10.2161 45.5243 10.0598C45.3159 9.90352 44.9946 9.7559 44.543 9.61696C44.0828 9.46934 43.7355 9.28699 43.4923 9.05254C43.2579 8.81808 43.1363 8.53153 43.1363 8.16682C43.1363 7.80212 43.2839 7.47214 43.5792 7.19427C43.8744 6.9164 44.2652 6.77747 44.7341 6.77747C45.1769 6.77747 45.533 6.89035 45.8108 7.10744C46.0887 7.32452 46.2711 7.56766 46.3492 7.82817L45.7414 8.07999C45.6979 7.915 45.5937 7.7587 45.4201 7.61976C45.2464 7.48083 45.0293 7.41136 44.7514 7.41136C44.4909 7.41136 44.2739 7.48083 44.0915 7.62845C43.9091 7.76738 43.8223 7.94974 43.8223 8.16682C43.8223 8.35786 43.9091 8.52284 44.0741 8.66178C44.2391 8.79203 44.4909 8.9136 44.8122 9.0178C45.0727 9.10464 45.2811 9.18279 45.4548 9.26094C45.6285 9.33909 45.8021 9.44329 45.9758 9.57355C46.1495 9.7038 46.2884 9.8601 46.3753 10.0511C46.4621 10.2422 46.5142 10.4679 46.5142 10.7198C46.5142 10.9716 46.4621 11.1974 46.3579 11.3971C46.2537 11.5968 46.1147 11.7531 45.9411 11.866C45.7674 11.9789 45.5851 12.0744 45.3853 12.1352C45.1856 12.196 44.9859 12.222 44.7775 12.222H44.7862Z" fill="white" stroke="white" stroke-width="0.17367" stroke-miterlimit="10"/>
<path d="M48.1545 12.1093H47.4858V6.89917H49.2573C49.7001 6.89917 50.0822 7.04679 50.4035 7.34203C50.7248 7.63727 50.8898 8.00197 50.8898 8.45351C50.8898 8.90505 50.7248 9.26976 50.4035 9.565C50.0822 9.86024 49.7001 10.0079 49.2573 10.0079H48.1545V12.1179V12.1093ZM48.1545 9.35659H49.2746C49.5525 9.35659 49.7783 9.26108 49.9519 9.07004C50.1256 8.879 50.2038 8.6706 50.2038 8.44483C50.2038 8.21906 50.1169 8.01066 49.9519 7.81962C49.7783 7.62858 49.5525 7.53306 49.2746 7.53306H48.1545V9.34791V9.35659Z" fill="white" stroke="white" stroke-width="0.17367" stroke-miterlimit="10"/>
<path d="M55.9954 11.4319C55.4831 11.9616 54.8492 12.2221 54.085 12.2221C53.3209 12.2221 52.687 11.9616 52.1747 11.4319C51.6623 10.9022 51.4105 10.2596 51.4105 9.50418C51.4105 8.74872 51.6623 8.09746 52.1747 7.57645C52.687 7.04676 53.3209 6.78625 54.085 6.78625C54.8492 6.78625 55.4744 7.04676 55.9954 7.57645C56.5077 8.10614 56.7682 8.74872 56.7682 9.50418C56.7682 10.2596 56.5077 10.9109 56.0041 11.4319H55.9954ZM52.6696 10.9977C53.0517 11.3885 53.5293 11.5795 54.085 11.5795C54.6408 11.5795 55.1184 11.3885 55.5004 10.9977C55.8825 10.607 56.0822 10.112 56.0822 9.50418C56.0822 8.89634 55.8912 8.40138 55.5004 8.01063C55.1184 7.61987 54.6408 7.42883 54.085 7.42883C53.5293 7.42883 53.0517 7.61987 52.6696 8.01063C52.2876 8.40138 52.0878 8.89634 52.0878 9.50418C52.0878 10.112 52.2789 10.607 52.6696 10.9977Z" fill="white" stroke="white" stroke-width="0.17367" stroke-miterlimit="10"/>
<path d="M57.7061 12.1093V6.89917H58.5223L61.0579 10.9544H61.0839L61.0579 9.94707V6.89917H61.7265V12.1093H61.0318L58.3834 7.86304H58.3573L58.3834 8.87032V12.1179H57.7147L57.7061 12.1093Z" fill="white" stroke="white" stroke-width="0.17367" stroke-miterlimit="10"/>
<path d="M62.916 12.1092V6.89915H63.5846V12.1092H62.916ZM63.5412 6.49102H62.9594L63.3415 5.56189H64.0709L63.5499 6.49102H63.5412Z" fill="white" stroke="white" stroke-width="0.17367" stroke-miterlimit="10"/>
<path d="M66.0693 12.1093L64.2371 6.89917H64.9752L66.3992 11.128H66.4253L67.9102 6.89917H68.6483L66.7553 12.1093H66.0606H66.0693Z" fill="white" stroke="white" stroke-width="0.17367" stroke-miterlimit="10"/>
<path d="M72.4508 7.54175H70.0803V9.19161H72.2164V9.81682H70.0803V11.4667H72.4508V12.1093H69.4116V6.89917H72.4508V7.54175Z" fill="white" stroke="white" stroke-width="0.17367" stroke-miterlimit="10"/>
<path d="M73.5007 12.1093V6.89917H74.1694V11.4667H76.4271V12.1093H73.5007V12.1093Z" fill="white" stroke="white" stroke-width="0.17367" stroke-miterlimit="10"/>
<path d="M79.0161 12.1093V6.89917H79.8324L82.3679 10.9544H82.394L82.3679 9.94707V6.89917H83.0366V12.1093H82.3419L79.6934 7.86304H79.6674L79.6934 8.87032V12.1179H79.0248L79.0161 12.1093Z" fill="white" stroke="white" stroke-width="0.17367" stroke-miterlimit="10"/>
<path d="M88.4889 11.4319C87.9766 11.9616 87.3427 12.2221 86.5786 12.2221C85.8144 12.2221 85.1805 11.9616 84.6682 11.4319C84.1559 10.9022 83.9041 10.2596 83.9041 9.50418C83.9041 8.74872 84.1559 8.09746 84.6682 7.57645C85.1805 7.04676 85.8144 6.78625 86.5786 6.78625C87.3427 6.78625 87.9679 7.04676 88.4889 7.57645C89.0013 8.10614 89.2618 8.74872 89.2618 9.50418C89.2618 10.2596 89.0099 10.9109 88.4976 11.4319H88.4889ZM85.1632 10.9977C85.5452 11.3885 86.0228 11.5795 86.5786 11.5795C87.1343 11.5795 87.6119 11.3885 87.994 10.9977C88.376 10.607 88.5758 10.112 88.5758 9.50418C88.5758 8.89634 88.3847 8.40138 87.994 8.01063C87.6119 7.61987 87.1343 7.42883 86.5786 7.42883C86.0228 7.42883 85.5452 7.61987 85.1632 8.01063C84.7811 8.40138 84.5814 8.89634 84.5814 9.50418C84.5814 10.112 84.7724 10.607 85.1632 10.9977Z" fill="white" stroke="white" stroke-width="0.17367" stroke-miterlimit="10"/>
<defs>
<linearGradient id="paint0_linear_6_1189" x1="19.3154" y1="8.38412" x2="4.74451" y2="22.955" gradientUnits="userSpaceOnUse">
<stop stop-color="#00A1FF"/>
<stop offset="0.26" stop-color="#00BEFF"/>
<stop offset="0.51" stop-color="#00D2FF"/>
<stop offset="0.76" stop-color="#00DFFF"/>
<stop offset="1" stop-color="#00E3FF"/>
</linearGradient>
<linearGradient id="paint1_linear_6_1189" x1="29.7613" y1="18.1877" x2="8.75597" y2="18.1877" gradientUnits="userSpaceOnUse">
<stop stop-color="#FFE000"/>
<stop offset="0.41" stop-color="#FFBD00"/>
<stop offset="0.78" stop-color="#FFA500"/>
<stop offset="1" stop-color="#FF9C00"/>
</linearGradient>
<linearGradient id="paint2_linear_6_1189" x1="21.9454" y1="20.1847" x2="2.18176" y2="39.9396" gradientUnits="userSpaceOnUse">
<stop stop-color="#FF3A44"/>
<stop offset="1" stop-color="#C31162"/>
</linearGradient>
<linearGradient id="paint3_linear_6_1189" x1="6.72519" y1="0.977051" x2="15.5476" y2="9.79946" gradientUnits="userSpaceOnUse">
<stop stop-color="#32A071"/>
<stop offset="0.07" stop-color="#2DA771"/>
<stop offset="0.48" stop-color="#15CF74"/>
<stop offset="0.8" stop-color="#06E775"/>
<stop offset="1" stop-color="#00F076"/>
</linearGradient>
</defs>
</svg>
